<?xml version="1.0" encoding="UTF-8" standalone="no"?>
<!-- Created with Inkscape (http://www.inkscape.org/) -->
<svg id="svg2" xmlns:rdf="http://www.w3.org/1999/02/22-rdf-syntax-ns#" xmlns="http://www.w3.org/2000/svg" xmlns:osb="http://www.openswatchbook.org/uri/2009/osb" xml:space="preserve" height="999.9" width="999.9" version="1.1" xmlns:cc="http://creativecommons.org/ns#" xmlns:dc="http://purl.org/dc/elements/1.1/"><metadata id="metadata8"><rdf:RDF><cc:Work rdf:about=""><dc:format>image/svg+xml</dc:format><dc:type rdf:resource="http://purl.org/dc/dcmitype/StillImage"/><dc:title/></cc:Work></rdf:RDF></metadata><defs id="defs6"/><g id="g10" transform="matrix(1.25,0,0,-1.25,0,999.9)"><g id="g3859" onmouseover='this.style = &quot;border: 10px solid black&quot;;' transform="matrix(0.1,0,0,0.1,-122.02169,-27.115943)"><g id="g7765" transform="translate(-1150.4316,155.78761)"><path id="path4535" fill-rule="evenodd" fill="#aa7764" d="m5290.3,7708.5c-1636.9,0-1242.4-2089.1,0-2089.1s1636.8,2089.1,0,2089.1"/><path id="path4537" fill-rule="evenodd" fill="#e8972d" d="m4767.9,1337.5c-114.19-163.8-266.36-258.01-304.36-376.18-61.384-190.82,159.58-191.02,289.54-155.08,121.78,33.671,188.68,112.37,259.07,131.91,181.49,50.46,186.15,153.86,112.72,399.35-73.453,245.49-265.04,153.23-356.97,0"/><path id="path4539" fill-rule="evenodd" fill="#e8972d" d="m5804.7,1337.5c114.21-163.8,266.31-258.01,304.31-376.18,62.573-194.42-170.34-188.5-296.8-152.49-119.81,34.11-181.97,109.95-251.73,129.32-181.52,50.46-186.17,153.86-112.8,399.35,73.453,245.49,265.09,153.23,357.02,0"/><path id="path4541" fill-rule="evenodd" fill="#869ab5" d="m4648,3453,1284.6,0,0-2252.3-533.53,0,0,1635.6c0,140.36-217.45,141.19-217.45,0v-1635.6h-533.58v2252.3"/><path id="path4543" fill-rule="evenodd" fill="#fcdabe" d="m4948.7,4947.8-312.48-947.13c-39.775-120.63-174.89-187.99-300.16-149.64-125.32,38.3-195.26,168.38-155.48,289.03l312.48,947.1c90.785,275.14,541.72,121.58,455.64-139.36"/><path id="path4545" fill-rule="evenodd" fill="#fcdabe" d="m4490.4,3276.1,0,0c31.704-3.7521,54.451-31.819,50.554-62.372l-17.256-134.78c-3.9472-30.528-33.121-52.431-64.799-48.655-31.729,3.7765-54.501,31.844-50.554,62.372l17.256,134.76c3.8965,30.552,33.07,52.431,64.799,48.679"/><path id="path4547" fill-rule="evenodd" fill="#fcdabe" d="m4540.9,3213.7,8.4004,74.749-464.93,52.48-8.3498-74.749c-37.523-330.35,422.02-434.63,464.88-52.48"/><path id="path4549" fill-rule="evenodd" fill="#fcdabe" d="m4549.3,3288.5,90.076,714.01c15.814,125.62-81.296,239.94-212.01,253.51-130.71,13.619-249.2-78.282-263.3-204.1l-79.702-710.94,464.93-52.48"/><path id="path4551" fill-rule="evenodd" fill="#fcdabe" d="m5637.1,4947.8,312.43-947.13c39.826-120.63,174.89-187.99,300.21-149.64,125.27,38.3,195.21,168.38,155.41,289.03l-312.46,947.1c-90.785,275.14-541.67,121.58-455.59-139.36"/><path id="path4553" fill-rule="evenodd" fill="#fcdabe" d="m6095.4,3276.1,0,0c-31.729-3.7521-54.451-31.819-50.554-62.372l17.307-134.78c3.8965-30.528,33.045-52.431,64.774-48.655,31.729,3.7765,54.476,31.844,50.554,62.372l-17.282,134.76c-3.9218,30.552-33.07,52.431-64.799,48.679"/><path id="path4555" fill-rule="evenodd" fill="#fcdabe" d="m6044.8,3213.7-8.3497,74.749,464.88,52.48,8.4004-74.773c37.473-330.33-422.04-434.61-464.93-52.456"/><path id="path4557" fill-rule="evenodd" fill="#fcdabe" d="m6036.5,3288.5-90.102,714.01c-15.839,125.62,81.296,239.94,212.01,253.51,130.71,13.619,249.18-78.282,263.32-204.12l79.652-710.92-464.88-52.48"/><path id="path4559" fill-rule="evenodd" fill="#e82c4f" d="m4648.1,3283.8,1284.5,0,0,1950.1-1284.5,0,0-1950.1z"/><path id="path4561" fill-rule="evenodd" fill="#fcdabe" d="m5290.3,6153.2,0,0c159.51,0,290.04-125.69,290.04-279.33v-639.97c0-153.62-130.53-279.31-290.04-279.31-159.53,0-290.09,125.69-290.09,279.31v639.97c0,153.64,130.56,279.33,290.09,279.33"/><path id="path4563" fill-rule="evenodd" fill="#e0ba9b" d="m5580.4,5442.2,0,0c0-239.89-580.13-239.89-580.13,0,0,239.91,580.13,239.91,580.13,0"/><path id="path4565" fill-rule="evenodd" fill="#fcdabe" d="m5290.3,7642.1c-1634.5,0-1240.7-2284.4,0-2284.4s1634.5,2284.4,0,2284.4"/><path id="path4567" fill-rule="evenodd" fill="#fcdabe" d="m4154.7,6636.2c82.587,20.295,182.83-89.05,224-244.25,41.116-155.17,7.6161-297.44-74.971-317.76-82.511-20.271-182.78,89.075-223.95,244.25-41.167,155.17-7.616,297.46,74.92,317.76"/><path id="path4569" fill-rule="evenodd" fill="#fcdabe" d="m6426.8,6636.2c-82.587,20.295-182.86-89.05-223.98-244.25-41.167-155.17-7.616-297.44,74.92-317.76,82.587-20.271,182.86,89.075,223.98,244.25,41.167,155.17,7.616,297.46-74.92,317.76"/><path id="path4571" fill-rule="evenodd" fill="#425156" d="m5629.4,6279.5c43.394,0,78.716,62.372,78.716,138.9,0,76.503-35.322,138.9-78.716,138.9-43.343,0-78.665-62.396-78.665-138.9,0-76.527,35.322-138.9,78.665-138.9"/><path id="path4573" fill-rule="evenodd" fill="#425156" d="m4951.2,6279.5c43.343,0,78.741,62.372,78.741,138.9,0,76.503-35.398,138.9-78.741,138.9s-78.716-62.396-78.716-138.9c0-76.527,35.373-138.9,78.716-138.9"/><path id="path4575" fill-rule="evenodd" fill="#e0ba9b" d="m5449.6,6122.4c-61.131-150.03-257.38-147.38-318.46,0,89.444-81.96,224.1-85.761,318.46,0"/><path id="path4577" fill-rule="evenodd" fill="#aa7764" d="m4387,6337.6c17.939-167.11-24.265-119.8-86.585,11.256-62.32,131.05-107.79,261.79-96.857,391.21,105.11,1249.6,2034.7,1264.9,2172.7,0,14.068-129.15-34.563-260.16-96.858-391.21-62.32-131.05-104.52-178.34-86.585-11.256,21.735,202.93-10.678,494.93-122.16,666.79-197.28,304.11-454.71,127.62-803.7,127.62-348.94,0-512.58,137.14-740.45-143.55-138.13-170.13-162.72-434.19-139.49-650.86"/><path id="path4579" fill-rule="evenodd" fill="#aa7764" d="m4205.6,6762.1c-129.88,1315,2296.2,1283.4,2169.4,0-281.06,784.37-1888.4,784.37-2169.4,0"/><path id="path4581" fill-rule="evenodd" fill="#bf9470" d="m5699.8,5900.2c-141.19-239.21-647.34-245.78-819.01,0,241.81-91.974,589.82-85.639,819.01,0"/><path id="path4583" fill-rule="evenodd" fill="#aa7764" d="m5789,6635.9c410.33,613.66,134.03,781.99-326.02,963.47,590.46,75.796,1293-482.19,326.02-963.47"/><path id="path4585" fill-rule="evenodd" fill="#aa7764" d="m5287.9,6674.6c629.4,470.69,437.66,673.86,91.468,923.74,638.15-44.635,1111.3-677.39-91.468-923.74"/><path id="path4587" fill-rule="evenodd" fill="#aa7764" d="m4838.7,6812.1c547.42,312.59,641.84,536.01,345.1,886.09,672.08-196.18,910.73-863.7-345.1-886.09"/><path id="path4589" fill-rule="evenodd" fill="#aa7764" d="m4366.2,6862.4c289.99,312.59,445.12,448.05,464.05,769.88,706.97-172.33,1193.5-495.17-464.05-769.88"/><path id="path4591" fill-rule="evenodd" fill="#e82c4f" d="m5673.7,4954.2,174-580.67,461.41,120.55-176.13,587.76c-83.118,277.38-538.16,135.42-459.29-127.64"/><path id="path4593" fill-rule="evenodd" fill="#e82c4f" d="m4921.9,4954.2-174.05-580.67-461.41,120.55,176.18,587.76c83.118,277.38,538.11,135.42,459.29-127.64"/><path id="path4595" fill-rule="evenodd" fill="#fa7d94" d="m4286.4,4494.1,24.746,82.643,336.9-86.98,0-90.147-361.65,94.484"/><path id="path4597" fill-rule="evenodd" fill="#f5b158" d="m4480.3,995.92c-6.6798-12.45-12.196-25.071-16.345-37.964-61.586-191.49,148.6-187.6,277.34-157.78,134.76,31.208,197.26,114.05,271.24,134.61,97.364,27.02,143.82,69.316,154.67,140.6-103.31-77.38-259.58-140.78-425.28-193.25-70.467,75.185-172.33,112.58-261.63,113.78"/><path id="path4599" fill-rule="nonzero" fill="#f5b158" d="m4551.7,1076.6c-6.7558-4.7509-16.244-3.3622-21.203,3.143-4.934,6.4808-3.4412,15.617,3.264,20.393,11.867,8.3568,30.363,15.788,52.73,21.416h-0.3289c-4.4027-0.3898-8.5522,1.0476-11.563,3.7277-1.594,0.9502-3.011,2.2171-4.1496,3.7277-4.9593,6.4808-3.5171,15.617,3.264,20.368,14.726,10.404,42.002,21.367,74.946,29.797-2.4037-0.1218-4.8327-0.2924-7.3123-0.5116-8.2993-0.7066-15.662,5.1895-16.396,13.205-0.7337,7.9914,5.3894,15.081,13.689,15.812,23.759,2.1196,44.583-0.195,62.902-5.5794v-42.077c-22.519-3.2647-43.824-8.0157-62.016-13.522,13.006-3.3136,24.822-8.162,35.575-14.107,8.7546,0.097,17.61-0.1218,26.441-0.6579v-59.546c-6.3255,7.3822-13.233,14.423-20.95,20.807-4.352,3.6059-8.9823,6.9925-13.942,10.111-49.846-1.5349-95.061-12.45-114.95-26.508zm149.84,125.5c8.9065-2.607,17.256-5.9448,25.024-9.8674l2.2519,0.1949c49.719,3.8008,101.08-0.7797,138.68-20.782,7.3123-3.8495,10.02-12.742,5.9713-19.784-3.9977-7.0657-13.233-9.6726-20.546-5.7987-23.582,12.548-54.628,17.834-87.242,18.346,20.672-19.516,35.347-42.223,46.91-61.3,5.4907-4.3855,7.1606-12.011,3.5929-18.249-3.9977-7.0656-13.233-9.6481-20.546-5.7743-23.076,12.231-51.288,19.272-80.512,22.318,19.534-19.905,33.576-42.296,44.532-60.545,4.2001-6.9681,1.7205-15.885-5.4906-19.905-7.2619-4.0444-16.497-1.6811-20.697,5.2627-8.451,14.009-18.774,30.601-31.932,45.975v59.546c21.102-1.2182,42.154-4.2393,62.016-9.3801-8.0462,10.379-17.332,20.466-28.111,29.139-4.8328,3.8983-9.9691,7.5285-15.51,10.769-6.2244-0.6091-12.348-1.3644-18.395-2.2416v42.077"/><path id="path4601" fill-rule="evenodd" fill="#f5b158" d="m6092.1,997.75c6.6799-12.45,12.221-25.071,16.371-37.984,61.561-191.46-150.5-187.58-279.21-157.76-134.79,31.237-195.41,114.05-269.39,134.61-97.364,27.02-143.82,69.316-154.62,140.6,103.28-77.38,259.55-140.78,425.23-193.23,70.467,75.19,172.38,112.56,261.63,113.76"/><path id="path4603" fill-rule="nonzero" fill="#f5b158" d="m5871,1203.9c-8.9064-2.607-17.206-5.9692-24.999-9.8674l-2.2771,0.1949c-49.719,3.8008-101.06-0.7797-138.68-20.782-7.3124-3.8739-9.9691-12.742-5.9713-19.808,3.9977-7.0412,13.258-9.6481,20.571-5.7498,23.607,12.499,54.602,17.81,87.217,18.322-20.621-19.516-35.347-42.223-46.911-61.3-5.4653-4.3855-7.1099-12.036-3.5929-18.249,4.0484-7.0656,13.233-9.6481,20.596-5.7743,23.025,12.255,51.263,19.272,80.462,22.366-19.483-19.954-33.5-42.369-44.532-60.593-4.2002-6.9681-1.7206-15.885,5.5412-19.93,7.2111-4.02,16.497-1.6567,20.647,5.3358,8.451,13.936,18.774,30.552,31.932,45.926v59.57c-21.052-1.2426-42.154-4.2393-62.016-9.4045,8.0968,10.355,17.332,20.466,28.162,29.139,4.8075,3.8983,9.9945,7.5285,15.51,10.793,6.1991-0.6578,12.322-1.3887,18.344-2.2659v42.077zm149.89-125.5c6.7051-4.7509,16.194-3.3379,21.153,3.143,4.9339,6.5052,3.4411,15.642-3.264,20.393-11.867,8.3568-30.338,15.788-52.68,21.44l0.329-0.049c4.4026-0.3898,8.5522,1.0963,11.588,3.752,1.5182,0.9502,2.9604,2.1927,4.1497,3.7033,4.9339,6.5052,3.441,15.642-3.264,20.393-14.777,10.404-42.053,21.367-74.971,29.773,2.3784-0.097,4.7821-0.2437,7.2617-0.4872,8.2992-0.7066,15.662,5.1895,16.396,13.181,0.759,8.0401-5.3895,15.13-13.689,15.837-23.759,2.1196-44.558-0.195-62.902-5.5794v-42.077c22.544-3.2647,43.824-8.04,62.016-13.522-13.005-3.3136-24.746-8.1376-35.524-14.107-8.8053,0.073-17.636-0.1218-26.492-0.6335v-59.57c6.3256,7.3579,13.284,14.448,21.001,20.807,4.352,3.5815,9.0076,7.0168,13.891,10.111,49.922-1.5349,95.086-12.474,115-26.508"/><path id="path4605" fill-rule="evenodd" fill="#e82c4f" d="m5000.2,5086.3,290.09-131.71,290.04,131.71,352.21-690.57-1284.5,3.9226,352.16,686.65"/><path id="path4607" fill-rule="evenodd" fill="#fa7d94" d="m4983,5339.2-94.783-105.35,116.67-442.43,196.95,224.71-218.84,323.07"/><path id="path4609" fill-rule="evenodd" fill="#fa7d94" d="m5602.9,5339.2,94.783-105.35-116.67-442.43-196.93,224.71,218.81,323.07"/><path id="path4611" fill-rule="evenodd" fill="#bd1837" d="m5290.3,4954.6-88.508,61.592-27.58-31.454c32.665-16.153,77.577-30.138,116.09-30.138zm116.09,36.181c-35.449-21.903-72.112-36.181-116.09-36.181l93.796,61.592,22.291-25.412"/><path id="path4613" fill-rule="evenodd" fill="#fa7d94" d="m6309.1,4494.1-24.746,82.643-351.8-90.902,0-90.147,376.55,98.406"/></g></g></g></svg>
