<?xml version="1.0" encoding="UTF-8" standalone="no"?>
<!-- Created with Inkscape (http://www.inkscape.org/) -->

<svg
   xmlns:dc="http://purl.org/dc/elements/1.1/"
   xmlns:cc="http://creativecommons.org/ns#"
   xmlns:rdf="http://www.w3.org/1999/02/22-rdf-syntax-ns#"
   xmlns:svg="http://www.w3.org/2000/svg"
   xmlns="http://www.w3.org/2000/svg"
   xmlns:sodipodi="http://sodipodi.sourceforge.net/DTD/sodipodi-0.dtd"
   xmlns:inkscape="http://www.inkscape.org/namespaces/inkscape"
   id="svg2"
   version="1.1"
   inkscape:version="0.91 r13725"
   xml:space="preserve"
   width="1000"
   height="1000"
   viewBox="0 0 1000 1000"
   sodipodi:docname="personaje.ai.svg"
   inkscape:export-filename="/home/alex/Desktop/site-eco-2017/eco/res/svg/copii.png"
   inkscape:export-xdpi="90"
   inkscape:export-ydpi="90"><metadata
     id="metadata8"><rdf:RDF><cc:Work
         rdf:about=""><dc:format>image/svg+xml</dc:format><dc:type
           rdf:resource="http://purl.org/dc/dcmitype/StillImage" /><dc:title></dc:title></cc:Work></rdf:RDF></metadata><defs
     id="defs6"><clipPath
       clipPathUnits="userSpaceOnUse"
       id="clipPath18"><path
         d="M 0,800 800,800 800,0 0,0 0,800 Z"
         id="path20"
         inkscape:connector-curvature="0" /></clipPath><clipPath
       clipPathUnits="userSpaceOnUse"
       id="clipPath26"><path
         d="m 280.789,36.0762 238.422,0 0,-23.0742 -238.422,0 0,23.0742 z"
         id="path28"
         inkscape:connector-curvature="0" /></clipPath><clipPath
       clipPathUnits="userSpaceOnUse"
       id="clipPath166"><path
         d="M 0,800 800,800 800,0 0,0 0,800 Z"
         id="path168"
         inkscape:connector-curvature="0" /></clipPath><clipPath
       clipPathUnits="userSpaceOnUse"
       id="clipPath190"><path
         d="M 0,800 800,800 800,0 0,0 0,800 Z"
         id="path192"
         inkscape:connector-curvature="0" /></clipPath><clipPath
       clipPathUnits="userSpaceOnUse"
       id="clipPath320"><path
         d="m 114.259,385.41 72.944,0 0,-325.0037 -72.944,0 0,325.0037 z"
         id="path322"
         inkscape:connector-curvature="0" /></clipPath><clipPath
       clipPathUnits="userSpaceOnUse"
       id="clipPath336"><path
         d="m 143.603,133.89 0.001,0 0,-0.023 -0.001,0 0,0.023 z"
         id="path338"
         inkscape:connector-curvature="0" /></clipPath><clipPath
       clipPathUnits="userSpaceOnUse"
       id="clipPath352"><path
         d="m 98.3809,73.4131 178.3611,0 0,-19.4024 -178.3611,0 0,19.4024 z"
         id="path354"
         inkscape:connector-curvature="0" /></clipPath><clipPath
       clipPathUnits="userSpaceOnUse"
       id="clipPath490"><path
         d="m 187.317,442.338 0.234,0 0,-10.484 -0.234,0 0,10.484 z"
         id="path492"
         inkscape:connector-curvature="0" /></clipPath><clipPath
       clipPathUnits="userSpaceOnUse"
       id="clipPath506"><path
         d="m 186.265,753.156 66.985,0 0,-325.909 -66.985,0 0,325.909 z"
         id="path508"
         inkscape:connector-curvature="0" /></clipPath><clipPath
       clipPathUnits="userSpaceOnUse"
       id="clipPath522"><path
         d="m 96.3809,439.201 178.3611,0 0,-19.402 -178.3611,0 0,19.402 z"
         id="path524"
         inkscape:connector-curvature="0" /></clipPath><clipPath
       clipPathUnits="userSpaceOnUse"
       id="clipPath646"><path
         d="m 326.051,386.253 72.781,0 0,-325.7843 -72.781,0 0,325.7843 z"
         id="path648"
         inkscape:connector-curvature="0" /></clipPath><clipPath
       clipPathUnits="userSpaceOnUse"
       id="clipPath662"><path
         d="m 306.819,73.4131 178.363,0 0,-19.4024 -178.363,0 0,19.4024 z"
         id="path664"
         inkscape:connector-curvature="0" /></clipPath><clipPath
       clipPathUnits="userSpaceOnUse"
       id="clipPath760"><path
         d="m 534.994,735.06 72.652,0 0,-317.366 -72.652,0 0,317.366 z"
         id="path762"
         inkscape:connector-curvature="0" /></clipPath><clipPath
       clipPathUnits="userSpaceOnUse"
       id="clipPath776"><path
         d="m 519.257,430.783 178.362,0 0,-19.403 -178.362,0 0,19.403 z"
         id="path778"
         inkscape:connector-curvature="0" /></clipPath><clipPath
       clipPathUnits="userSpaceOnUse"
       id="clipPath868"><path
         d="m 539.218,386.315 74.089,0 0,-325.9087 -74.089,0 0,325.9087 z"
         id="path870"
         inkscape:connector-curvature="0" /></clipPath><clipPath
       clipPathUnits="userSpaceOnUse"
       id="clipPath884"><path
         d="m 525.257,73.4131 178.362,0 0,-19.4024 -178.362,0 0,19.4024 z"
         id="path886"
         inkscape:connector-curvature="0" /></clipPath></defs><sodipodi:namedview
     pagecolor="#ffffff"
     bordercolor="#666666"
     borderopacity="1"
     objecttolerance="10"
     gridtolerance="10"
     guidetolerance="10"
     inkscape:pageopacity="0"
     inkscape:pageshadow="2"
     inkscape:window-width="1855"
     inkscape:window-height="1056"
     id="namedview4"
     showgrid="false"
     inkscape:zoom="0.6675088"
     inkscape:cx="154.31254"
     inkscape:cy="605.17899"
     inkscape:window-x="65"
     inkscape:window-y="24"
     inkscape:window-maximized="1"
     inkscape:current-layer="g10" /><g
     id="g10"
     inkscape:groupmode="layer"
     inkscape:label="32462-NYMLJE"
     transform="matrix(1.25,0,0,-1.25,0,1000)"><g
       id="g194"
       transform="matrix(1.2937065,0,0,1.2937065,690.10628,567.714)"><path
         d="m 0,0 -26.839,0 -26.84,0 c 0,0 -23.938,-10 -20.592,-72 l 47.432,0 47.432,0 C 23.937,-10 0,0 0,0"
         style="fill:#620300;fill-opacity:1;fill-rule:nonzero;stroke:none"
         id="path196"
         inkscape:connector-curvature="0" /></g><g
       id="g198"
       transform="matrix(1.2937065,0,0,1.2937065,584.73138,597.38743)"><path
         d="m 0,0 c -5.842,0 -5.297,-19.135 -5.297,-19.135 l 5.297,-0.17 5.296,0.17 C 5.296,-19.135 5.842,0 0,0"
         style="fill:#f9c81e;fill-opacity:1;fill-rule:nonzero;stroke:none"
         id="path200"
         inkscape:connector-curvature="0" /></g><g
       id="g202"
       transform="matrix(1.2937065,0,0,1.2937065,568.37405,599.05611)"><path
         d="m 0,0 3.057,-1.549 0,-26.678 -2.822,0 L 0,0 Z"
         style="fill:#f9c81e;fill-opacity:1;fill-rule:nonzero;stroke:none"
         id="path204"
         inkscape:connector-curvature="0" /></g><g
       id="g206"
       transform="matrix(1.2937065,0,0,1.2937065,601.08309,318.33563)"><path
         d="m 0,0 c 0,0 1.875,-3.2 3.969,-5.625 2.095,-2.426 0.442,-6.946 0,-8.271 -0.441,-1.323 -4.189,-4.189 -4.631,5.183 C -1.104,0.661 0.38,-20.817 -1.875,-23.048 -6.459,-27.584 -18.637,-23.929 -12.131,0 -5.625,23.929 -1.736,2.694 0,0"
         style="fill:#ffc99c;fill-opacity:1;fill-rule:nonzero;stroke:none"
         id="path208"
         inkscape:connector-curvature="0" /></g><g
       id="g210"
       transform="matrix(1.2937065,0,0,1.2937065,714.11178,318.33563)"><path
         d="m 0,0 c 0,0 -1.875,-3.2 -3.971,-5.625 -2.094,-2.426 -0.441,-6.946 0,-8.271 0.442,-1.323 4.191,-4.189 4.632,5.183 C 1.102,0.661 -0.381,-20.817 1.874,-23.048 6.459,-27.584 18.636,-23.929 12.13,0 5.624,23.929 1.734,2.694 0,0"
         style="fill:#ffc99c;fill-opacity:1;fill-rule:nonzero;stroke:none"
         id="path212"
         inkscape:connector-curvature="0" /></g><g
       id="g214"
       transform="matrix(1.2937065,0,0,1.2937065,655.21087,230.05659)"><path
         d="m 0,0 c 0,0 0.772,-12.916 -1.3,-13.736 -1.9,-0.75 -38.875,-3.873 -32.419,4.844 6.455,8.72 11.754,5.892 12.284,8.892 L 0,0 Z"
         style="fill:#620300;fill-opacity:1;fill-rule:nonzero;stroke:none"
         id="path216"
         inkscape:connector-curvature="0" /></g><path
       d="m 624.0773,228.76289 31.04896,0 0,20.6993 -31.04896,0 0,-20.6993 z"
       style="fill:#81bbb2;fill-opacity:1;fill-rule:nonzero;stroke:none"
       id="path218"
       inkscape:connector-curvature="0" /><g
       id="g220"
       transform="matrix(1.2937065,0,0,1.2937065,666.96225,230.05659)"><path
         d="m 0,0 c 0,0 -0.771,-12.916 1.3,-13.736 1.901,-0.75 38.875,-3.873 32.419,4.844 C 27.265,-0.172 21.965,-3 21.435,0 L 0,0 Z"
         style="fill:#620300;fill-opacity:1;fill-rule:nonzero;stroke:none"
         id="path222"
         inkscape:connector-curvature="0" /></g><path
       d="m 695.23116,228.76289 -29.75525,0 0,20.6993 29.75525,0 0,-20.6993 z"
       style="fill:#81bbb2;fill-opacity:1;fill-rule:nonzero;stroke:none"
       id="path224"
       inkscape:connector-curvature="0" /><path
       d="m 673.23815,390.4762 -34.93007,0 0,51.74826 34.93007,0 0,-51.74826 z"
       style="fill:#ffc99c;fill-opacity:1;fill-rule:nonzero;stroke:none"
       id="path226"
       inkscape:connector-curvature="0" /><g
       id="g228"
       transform="matrix(1.2937065,0,0,1.2937065,732.5718,316.81708)"><path
         d="M 0,0 C 0,0 -8.47,31.824 -13.063,59.61 -17.655,87.397 -45.16,80.515 -45.16,80.515 L -58.467,61.186 -72.51,80.515 c 0,0 -27.505,6.882 -32.097,-20.905 C -109.2,31.824 -117.67,0 -117.67,0 l 20.68,-1.608 5.977,24.953 -4.012,-78.408 36.19,0 36.19,0 -4.011,78.408 L -20.68,-1.67 0,0 Z"
         style="fill:#3c3c3b;fill-opacity:1;fill-rule:nonzero;stroke:none"
         id="path230"
         inkscape:connector-curvature="0" /></g><g
       id="g232"
       transform="matrix(1.2937065,0,0,1.2937065,706.71346,533.57101)"><path
         d="m 0,0 c 0,38.852 -24.82,44.243 -39.677,44.243 -14.857,0 -39.676,-5.391 -39.676,-44.243 0,-38.85 -11.466,-76.912 39.676,-76.912 C 11.465,-76.912 0,-38.85 0,0"
         style="fill:#ffc99c;fill-opacity:1;fill-rule:nonzero;stroke:none"
         id="path234"
         inkscape:connector-curvature="0" /></g><g
       id="g236"
       transform="matrix(1.2937065,0,0,1.2937065,678.31259,421.6641)"><path
         d="m 0,0 -16.605,-23.737 -16.954,23.712 c 0,0 -1.504,0.18 -2.722,0.218 L -16.545,-29.274 2.625,0.193 C 1.407,0.155 0,0 0,0"
         style="fill:#f9c81e;fill-opacity:1;fill-rule:nonzero;stroke:none"
         id="path238"
         inkscape:connector-curvature="0" /></g><g
       id="g240"
       transform="matrix(1.2937065,0,0,1.2937065,635.76297,498.43123)"><path
         d="m 0,0 c 0,-1.832 -1.485,-3.318 -3.317,-3.318 -1.834,0 -3.321,1.486 -3.321,3.318 0,1.833 1.487,3.318 3.321,3.318 C -1.485,3.318 0,1.833 0,0"
         style="fill:#3c3c3b;fill-opacity:1;fill-rule:nonzero;stroke:none"
         id="path242"
         inkscape:connector-curvature="0" /></g><g
       id="g244"
       transform="matrix(1.2937065,0,0,1.2937065,683.59039,498.43123)"><path
         d="m 0,0 c 0,-1.832 -1.485,-3.318 -3.317,-3.318 -1.833,0 -3.321,1.486 -3.321,3.318 0,1.833 1.488,3.318 3.321,3.318 C -1.485,3.318 0,1.833 0,0"
         style="fill:#3c3c3b;fill-opacity:1;fill-rule:nonzero;stroke:none"
         id="path246"
         inkscape:connector-curvature="0" /></g><g
       id="g248"
       transform="matrix(1.2937065,0,0,1.2937065,644.63896,460.33635)"><path
         d="m 0,0 18.484,0 c 0,0 0,-7.696 -9.241,-7.696 C 1.139,-7.696 0.281,-3 0,0"
         style="fill:#ffffff;fill-opacity:1;fill-rule:nonzero;stroke:none"
         id="path250"
         inkscape:connector-curvature="0" /></g><g
       id="g252"
       transform="matrix(1.2937065,0,0,1.2937065,656.68401,502.72413)"><path
         d="m 0,0 3.224,-10.382 3.224,-10.383 -6.448,0 -6.45,0 3.225,10.383 L 0,0 Z"
         style="fill:#fba685;fill-opacity:1;fill-rule:nonzero;stroke:none"
         id="path254"
         inkscape:connector-curvature="0" /></g><g
       id="g256"
       transform="matrix(1.2937065,0,0,1.2937065,685.22577,594.8667)"><path
         d="m 0,0 c -11.479,6.08 -19.106,6.445 -23.067,5.89 -3.961,0.555 -11.587,0.154 -23.067,-5.928 -17.751,-9.406 -24.192,-49.95 -24.192,-49.95 l 47.259,0 47.258,0 c 0,0 -6.44,40.582 -24.191,49.988"
         style="fill:#620300;fill-opacity:1;fill-rule:nonzero;stroke:none"
         id="path258"
         inkscape:connector-curvature="0" /></g><g
       id="g260"
       transform="matrix(1.2937065,0,0,1.2937065,596.90947,571.49408)"><path
         d="M 0,0 0,11.2 -27.153,23.219 47.242,47.394 111.761,20.48 87.119,9.336 87.748,0 C 87.748,0 52,10.729 0,0"
         style="fill:#3c3c3b;fill-opacity:1;fill-rule:nonzero;stroke:none"
         id="path262"
         inkscape:connector-curvature="0" /></g><g
       id="g264"
       transform="matrix(1.2937065,0,0,1.2937065,596.90947,571.49408)"><path
         d="m 0,0 0,10.695 c 0,0 29.501,4.235 45.993,4.235 16.49,0 40.937,-5.594 40.937,-5.594 l 0.723,-9.588 C 87.653,-0.252 52,10.729 0,0"
         style="fill:#323232;fill-opacity:1;fill-rule:nonzero;stroke:none"
         id="path266"
         inkscape:connector-curvature="0" /></g><g
       id="g268"
       transform="matrix(1.2937065,0,0,1.2937065,648.0797,498.65103)"><path
         d="m 0,0 c 0,-7.435 -6.026,-13.46 -13.46,-13.46 -7.435,0 -13.461,6.025 -13.461,13.46 0,7.435 6.026,13.46 13.461,13.46 C -6.026,13.46 0,7.435 0,0 Z"
         style="fill:none;stroke:#3c3c3b;stroke-width:2;stroke-linecap:butt;stroke-linejoin:miter;stroke-miterlimit:10;stroke-dasharray:none;stroke-opacity:1"
         id="path270"
         inkscape:connector-curvature="0" /></g><g
       id="g272"
       transform="matrix(1.2937065,0,0,1.2937065,699.81283,498.65103)"><path
         d="m 0,0 c 0,-7.435 -6.026,-13.46 -13.46,-13.46 -7.435,0 -13.46,6.025 -13.46,13.46 0,7.435 6.025,13.46 13.46,13.46 C -6.026,13.46 0,7.435 0,0 Z"
         style="fill:none;stroke:#3c3c3b;stroke-width:2;stroke-linecap:butt;stroke-linejoin:miter;stroke-miterlimit:10;stroke-dasharray:none;stroke-opacity:1"
         id="path274"
         inkscape:connector-curvature="0" /></g><g
       id="g276"
       transform="matrix(1.2937065,0,0,1.2937065,648.01592,498.00547)"><path
         d="M 0,0 C 0.25,3.107 12.417,2.973 13.117,0.499"
         style="fill:none;stroke:#3c3c3b;stroke-width:2;stroke-linecap:butt;stroke-linejoin:miter;stroke-miterlimit:10;stroke-dasharray:none;stroke-opacity:1"
         id="path278"
         inkscape:connector-curvature="0" /></g><g
       id="g280"
       transform="matrix(1.2937065,0,0,1.2937065,699.81283,499.52156)"><path
         d="M 0,0 C 0,0 7.272,20.137 17.916,12.787"
         style="fill:none;stroke:#3c3c3b;stroke-width:2;stroke-linecap:butt;stroke-linejoin:miter;stroke-miterlimit:10;stroke-dasharray:none;stroke-opacity:1"
         id="path282"
         inkscape:connector-curvature="0" /></g><g
       id="g284"
       transform="matrix(1.2937065,0,0,1.2937065,613.25196,498.65103)"><path
         d="M 0,0 C 0,0 -7.848,20.81 -18.491,13.46"
         style="fill:none;stroke:#3c3c3b;stroke-width:2;stroke-linecap:butt;stroke-linejoin:miter;stroke-miterlimit:10;stroke-dasharray:none;stroke-opacity:1"
         id="path286"
         inkscape:connector-curvature="0" /></g><g
       id="g288"
       transform="matrix(1.2937065,0,0,1.2937065,640.78682,273.81272)"><path
         d="m 0,0 -41,32.793 c 0,0 0.318,-8.301 -7.557,-9.569 l 40.58,-33.269 c 0,0 8.507,2.177 7.977,10.045"
         style="fill:#ffffff;fill-opacity:1;fill-rule:nonzero;stroke:none"
         id="path290"
         inkscape:connector-curvature="0" /></g><g
       id="g292"
       transform="matrix(1.2937065,0,0,1.2937065,613.10667,295.95102)"><path
         d="m 0,0 -8.375,-10.046 5.415,-3.683 c 0,0 6.953,1.991 7.298,10.261 L 0,0 Z"
         style="fill:#ff5a58;fill-opacity:1;fill-rule:nonzero;stroke:none"
         id="path294"
         inkscape:connector-curvature="0" /></g><g
       id="g296"
       transform="matrix(1.2937065,0,0,1.2937065,606.51123,282.61083)"><path
         d="M 0,0 C -0.089,-0.131 -10.514,-6.26 -10.514,-6.26 L -8.292,0.793 0,0 Z"
         style="fill:#ff5a58;fill-opacity:1;fill-rule:nonzero;stroke:none"
         id="path298"
         inkscape:connector-curvature="0" /></g><g
       id="g300"
       transform="matrix(1.2937065,0,0,1.2937065,599.1274,269.58036)"><path
         d="M 0,0 5.708,10.072 6.167,0.454 -0.002,-0.175"
         style="fill:#ff5a58;fill-opacity:1;fill-rule:nonzero;stroke:none"
         id="path302"
         inkscape:connector-curvature="0" /></g><g
       id="g304"
       transform="matrix(1.2937065,0,0,1.2937065,587.7455,316.23711)"><path
         d="m 0,0 c 0,0 -7.47,-0.742 -7.558,-9.569 0,0 7.584,-1.189 7.558,9.569"
         style="fill:#ffffff;fill-opacity:1;fill-rule:nonzero;stroke:none"
         id="path306"
         inkscape:connector-curvature="0" /></g><g
       id="g308"
       transform="matrix(1.2937065,0,0,1.2937065,601.35348,304.87306)"><path
         d="m 0,0 c -1.975,2.354 2.498,6.153 4.593,3.729 2.094,-2.425 0.441,-6.947 0,-8.27 C 4.162,-5.833 0.58,-8.589 0,0"
         style="fill:#ffc99c;fill-opacity:1;fill-rule:nonzero;stroke:none"
         id="path310"
         inkscape:connector-curvature="0" /></g><g
       id="g312"
       transform="matrix(1.2937065,0,0,1.2937065,590.94315,292.70912)"><path
         d="M 0,0 C 2.191,-0.452 5.465,-2.15 6.476,-4.575 3.472,-7.127 -2.15,-6.506 -4.38,0.056 -2.903,0.267 -1.416,0.293 0,0"
         style="fill:#ffc99c;fill-opacity:1;fill-rule:nonzero;stroke:none"
         id="path314"
         inkscape:connector-curvature="0" /></g><g
       id="g316"
       transform="matrix(1.2937065,0,0,1.2937065,414.49685,133.0286)"><g
         id="g318" /><g
         id="g324"><g
           clip-path="url(#clipPath320)"
           id="g326"
           style="opacity:0.10000598"><g
             transform="translate(153.6826,126.4678)"
             id="g328"><path
               d="m 0,0 -3.58,2.804 c 0.601,1.884 1.431,5.293 -0.329,7.288 -0.112,0.128 -0.235,0.229 -0.36,0.323 -0.137,0.258 -0.293,0.504 -0.491,0.73 -0.871,0.987 -1.702,2.101 -2.386,3.077 L -4.067,13.987 2.038,38.978 0,0 Z m 33.521,258.942 -72.944,-23.269 5.231,-2.234 -0.164,-21.899 c -4.244,-3.127 -3.796,-18.58 -3.796,-18.58 l 5.41,-0.17 5.41,0.17 c 0,0 0.41,14.171 -3.283,18.117 l 0,20.835 19.348,-8.258 0,-11.2 c 2.562,0.523 5.074,0.978 7.558,1.401 -7.506,-14.89 -10.504,-33.312 -10.504,-33.312 l 2.882,0 c -0.706,-2.854 -1.333,-5.966 -1.847,-9.369 -1.554,0.051 -3.199,-0.405 -4.915,-1.566 l 4.308,-3.07 c -0.92,-8.157 -1.23,-17.783 -0.605,-29.141 l 7.328,0 c 1.701,-15.382 8.144,-26.879 28.042,-30.195 l 0,-11.148 -0.042,0.056 c 0,0 -1.169,0.283 -3.051,0.501 l -0.003,0.003 c 0,0 -0.144,0.017 -0.365,0.04 -0.048,0.005 -0.097,0.011 -0.146,0.015 -0.556,0.058 -1.47,0.14 -2.269,0.164 l 0.002,-0.004 C 6.613,97.185 -8.516,94.941 -11.848,75.206 -16.539,47.42 -25.19,15.596 -25.19,15.596 l 3.608,-0.275 c -0.075,-0.299 -0.156,-0.603 -0.226,-0.895 -2.239,-1.005 -5.201,-3.367 -5.256,-8.848 l 4.045,-3.247 c 0.342,-3.861 1.563,-6.488 3.148,-8.124 2.645,-3.751 6.867,-3.928 9.445,-1.982 l 2.933,-2.355 -0.345,-0.404 -5.16,0.482 -2.27,-7.052 c 0,0 6.222,3.581 9.194,5.326 l 0.726,-0.484 -5.01,-8.655 -0.002,-0.175 6.301,0.629 -0.37,7.589 2.084,-1.388 1.534,-1.231 -1.249,-23.902 12.291,0 0,-12.627 1.255,0 c -1.611,-1.513 -6.377,-0.521 -12.005,-7.964 -6.595,-8.718 31.173,-5.719 33.114,-4.969 0.408,0.158 0.707,0.777 0.926,1.669 l 0,322.228 z"
               style="fill:#ffffff;fill-opacity:1;fill-rule:nonzero;stroke:none"
               id="path330"
               inkscape:connector-curvature="0" /></g></g></g></g><g
       id="g332"
       transform="matrix(1.2937065,0,0,1.2937065,414.49685,133.0286)"><g
         id="g334" /><g
         id="g340"><g
           clip-path="url(#clipPath336)"
           id="g342"
           style="opacity:0.10000598"><g
             transform="translate(143.6025,133.8896)"
             id="g344"><path
               d="M 0,0 C 0,-0.007 0,-0.015 0.001,-0.022 L 0,-0.021 C 0,-0.015 0,-0.006 0,0"
               style="fill:#ffffff;fill-opacity:1;fill-rule:nonzero;stroke:none"
               id="path346"
               inkscape:connector-curvature="0" /></g></g></g></g><g
       id="g348"
       transform="matrix(1.2937065,0,0,1.2937065,414.49685,133.0286)"><g
         id="g350" /><g
         id="g356"><g
           clip-path="url(#clipPath352)"
           id="g358"
           style="opacity:0.10000598"><g
             transform="translate(276.7422,63.7119)"
             id="g360"><path
               d="m 0,0 c 0,-5.358 -39.928,-9.701 -89.181,-9.701 -49.253,0 -89.18,4.343 -89.18,9.701 0,5.357 39.927,9.701 89.18,9.701 C -39.928,9.701 0,5.357 0,0"
               style="fill:#3c3c3b;fill-opacity:1;fill-rule:nonzero;stroke:none"
               id="path362"
               inkscape:connector-curvature="0" /></g></g></g></g><path
       d="m 371.05812,197.45716 -38.81119,0 0,56.92309 38.81119,0 0,-56.92309 z"
       style="fill:#d1d1cb;fill-opacity:1;fill-rule:nonzero;stroke:none"
       id="path534"
       inkscape:connector-curvature="0" /><g
       id="g536"
       transform="matrix(1.2937065,0,0,1.2937065,338.71546,244.67745)"><path
         d="M 0,0 20,0"
         style="fill:none;stroke:#3c3c3b;stroke-width:1;stroke-linecap:round;stroke-linejoin:round;stroke-miterlimit:10;stroke-dasharray:none;stroke-opacity:1"
         id="path538"
         inkscape:connector-curvature="0" /></g><g
       id="g540"
       transform="matrix(1.2937065,0,0,1.2937065,338.71546,239.50262)"><path
         d="M 0,0 20,0"
         style="fill:none;stroke:#3c3c3b;stroke-width:1;stroke-linecap:round;stroke-linejoin:round;stroke-miterlimit:10;stroke-dasharray:none;stroke-opacity:1"
         id="path542"
         inkscape:connector-curvature="0" /></g><g
       id="g544"
       transform="matrix(1.2937065,0,0,1.2937065,338.71546,234.3278)"><path
         d="M 0,0 20,0"
         style="fill:none;stroke:#3c3c3b;stroke-width:1;stroke-linecap:round;stroke-linejoin:round;stroke-miterlimit:10;stroke-dasharray:none;stroke-opacity:1"
         id="path546"
         inkscape:connector-curvature="0" /></g><g
       id="g548"
       transform="matrix(1.2937065,0,0,1.2937065,338.71546,227.85926)"><path
         d="M 0,0 20,0"
         style="fill:none;stroke:#3c3c3b;stroke-width:1;stroke-linecap:round;stroke-linejoin:round;stroke-miterlimit:10;stroke-dasharray:none;stroke-opacity:1"
         id="path550"
         inkscape:connector-curvature="0" /></g><g
       id="g552"
       transform="matrix(1.2937065,0,0,1.2937065,338.71546,222.68444)"><path
         d="M 0,0 20,0"
         style="fill:none;stroke:#3c3c3b;stroke-width:1;stroke-linecap:round;stroke-linejoin:round;stroke-miterlimit:10;stroke-dasharray:none;stroke-opacity:1"
         id="path554"
         inkscape:connector-curvature="0" /></g><g
       id="g556"
       transform="matrix(1.2937065,0,0,1.2937065,338.71546,217.50961)"><path
         d="M 0,0 20,0"
         style="fill:none;stroke:#3c3c3b;stroke-width:1;stroke-linecap:round;stroke-linejoin:round;stroke-miterlimit:10;stroke-dasharray:none;stroke-opacity:1"
         id="path558"
         inkscape:connector-curvature="0" /></g><g
       id="g560"
       transform="matrix(1.2937065,0,0,1.2937065,338.71546,212.33479)"><path
         d="M 0,0 20,0"
         style="fill:none;stroke:#3c3c3b;stroke-width:1;stroke-linecap:round;stroke-linejoin:round;stroke-miterlimit:10;stroke-dasharray:none;stroke-opacity:1"
         id="path562"
         inkscape:connector-curvature="0" /></g><g
       id="g564"
       transform="matrix(1.2937065,0,0,1.2937065,338.71546,204.57255)"><path
         d="M 0,0 14,0"
         style="fill:none;stroke:#3c3c3b;stroke-width:1;stroke-linecap:round;stroke-linejoin:round;stroke-miterlimit:10;stroke-dasharray:none;stroke-opacity:1"
         id="path566"
         inkscape:connector-curvature="0" /></g><g
       id="g568"
       transform="matrix(1.2937065,0,0,1.2937065,365.50747,205.35201)"><path
         d="m 0,0 c 0,-1.189 -0.964,-2.152 -2.152,-2.152 -1.189,0 -2.153,0.963 -2.153,2.152 0,1.188 0.964,2.151 2.153,2.151 C -0.964,2.151 0,1.188 0,0"
         style="fill:#ff5a58;fill-opacity:1;fill-rule:nonzero;stroke:none"
         id="path570"
         inkscape:connector-curvature="0" /></g><g
       id="g572"
       transform="matrix(1.2937065,0,0,1.2937065,333.05679,521.53194)"><path
         d="M 0,0 C -5.842,0 -5.296,-19.136 -5.296,-19.136 L 0,-19.304 5.297,-19.136 C 5.297,-19.136 5.842,0 0,0"
         style="fill:#f9c81e;fill-opacity:1;fill-rule:nonzero;stroke:none"
         id="path574"
         inkscape:connector-curvature="0" /></g><g
       id="g576"
       transform="matrix(1.2937065,0,0,1.2937065,331.41313,549.598)"><path
         d="m 0,0 3.645,-1.579 0,-26.616 -3.998,0 L 0,0 Z"
         style="fill:#f9c81e;fill-opacity:1;fill-rule:nonzero;stroke:none"
         id="path578"
         inkscape:connector-curvature="0" /></g><g
       id="g580"
       transform="matrix(1.2937065,0,0,1.2937065,362.7198,255.00187)"><path
         d="m 0,0 0,0 5.294,-0.013 c 0.267,1.689 0.295,3.784 -0.827,5.083 -2.095,2.425 -3.97,5.625 -3.97,5.625 -1.735,2.695 -5.624,23.928 -12.13,0 -6.506,-23.929 5.672,-27.583 10.255,-23.048 1.325,1.312 1.359,9.267 1.252,13.705 C -0.094,0.864 -0.051,0.416 0,0"
         style="fill:#ffc99c;fill-opacity:1;fill-rule:nonzero;stroke:none"
         id="path582"
         inkscape:connector-curvature="0" /></g><g
       id="g584"
       transform="matrix(1.2937065,0,0,1.2937065,476.39287,268.83845)"><path
         d="m 0,0 c 0,0 -1.877,-3.2 -3.971,-5.625 -2.094,-2.426 -0.442,-6.947 0,-8.271 0.442,-1.322 4.191,-4.189 4.63,5.183 C 1.102,0.661 -0.38,-20.816 1.874,-23.048 6.458,-27.583 18.636,-23.93 12.129,0 5.623,23.928 1.732,2.694 0,0"
         style="fill:#ffc99c;fill-opacity:1;fill-rule:nonzero;stroke:none"
         id="path586"
         inkscape:connector-curvature="0" /></g><g
       id="g588"
       transform="matrix(1.2937065,0,0,1.2937065,417.49261,180.63898)"><path
         d="m 0,0 c 0,0 0.771,-12.947 -1.301,-13.766 -1.9,-0.75 -38.874,-3.859 -32.419,4.86 C -27.266,-0.187 -21.967,-3 -21.437,0 L 0,0 Z"
         style="fill:#620300;fill-opacity:1;fill-rule:nonzero;stroke:none"
         id="path590"
         inkscape:connector-curvature="0" /></g><path
       d="m 387.87631,179.34527 29.75525,0 0,19.4056 -29.75525,0 0,-19.4056 z"
       style="fill:#81bbb2;fill-opacity:1;fill-rule:nonzero;stroke:none"
       id="path592"
       inkscape:connector-curvature="0" /><g
       id="g594"
       transform="matrix(1.2937065,0,0,1.2937065,429.24335,180.63898)"><path
         d="M 0,0 C 0,0 -0.772,-12.947 1.299,-13.766 3.2,-14.516 40.174,-17.625 33.72,-8.906 27.264,-0.187 21.966,-3 21.435,0 L 0,0 Z"
         style="fill:#620300;fill-opacity:1;fill-rule:nonzero;stroke:none"
         id="path596"
         inkscape:connector-curvature="0" /></g><path
       d="m 459.03017,179.34527 -28.46155,0 0,19.4056 28.46155,0 0,-19.4056 z"
       style="fill:#81bbb2;fill-opacity:1;fill-rule:nonzero;stroke:none"
       id="path598"
       inkscape:connector-curvature="0" /><path
       d="m 437.03716,341.05859 -36.22379,0 0,51.74826 36.22379,0 0,-51.74826 z"
       style="fill:#ffc99c;fill-opacity:1;fill-rule:nonzero;stroke:none"
       id="path600"
       inkscape:connector-curvature="0" /><g
       id="g602"
       transform="matrix(1.2937065,0,0,1.2937065,494.85471,267.3199)"><path
         d="m 0,0 c 0,0 -8.473,31.825 -13.064,59.61 -4.594,27.787 -32.098,20.904 -32.098,20.904 L -58.469,61.186 -72.512,80.514 c 0,0 -27.504,6.883 -32.097,-20.904 C -109.202,31.825 -117.673,0 -117.673,0 l 20.681,-1.608 5.976,24.983 -4.011,-78.377 36.19,0 36.191,0 -4.012,78.377 5.976,-25.029 L 0,0 Z"
         style="fill:#3c3c3b;fill-opacity:1;fill-rule:nonzero;stroke:none"
         id="path604"
         inkscape:connector-curvature="0" /></g><g
       id="g606"
       transform="matrix(1.2937065,0,0,1.2937065,468.99326,484.07383)"><path
         d="m 0,0 c 0,38.853 -24.82,44.244 -39.677,44.244 -14.856,0 -39.675,-5.391 -39.675,-44.244 0,-38.85 -11.467,-76.912 39.675,-76.912 C 11.467,-76.912 0,-38.85 0,0"
         style="fill:#ffc99c;fill-opacity:1;fill-rule:nonzero;stroke:none"
         id="path608"
         inkscape:connector-curvature="0" /></g><g
       id="g610"
       transform="matrix(1.2937065,0,0,1.2937065,373.06246,511.07103)"><path
         d="m 0,0 c 0,0 6.332,-19.235 -5.414,-30.979 0,0 -29.454,36.486 1.745,41.258 0,0 16.687,53.109 70.277,9.834 C 75.239,13.143 84.782,-4.577 102.4,4.6 102.4,4.6 76.955,-51.531 21.821,-5.747 17.481,-2.143 13.018,8.75 0,0"
         style="fill:#9f5f2e;fill-opacity:1;fill-rule:nonzero;stroke:none"
         id="path612"
         inkscape:connector-curvature="0" /></g><g
       id="g614"
       transform="matrix(1.2937065,0,0,1.2937065,440.59226,372.16692)"><path
         d="m 0,0 -16.604,-23.737 -16.955,23.712 c 0,0 -1.504,0.179 -2.721,0.218 L -16.546,-29.274 2.626,0.193 C 1.407,0.154 0,0 0,0"
         style="fill:#f9c81e;fill-opacity:1;fill-rule:nonzero;stroke:none"
         id="path616"
         inkscape:connector-curvature="0" /></g><g
       id="g618"
       transform="matrix(1.2937065,0,0,1.2937065,360.70847,521.9969)"><path
         d="M 0,0 0,11.2 -27.74,23.22 46.362,47.393 110.734,20.481 86.02,9.336 87.197,0 C 87.197,0 51,10.729 0,0"
         style="fill:#3c3c3b;fill-opacity:1;fill-rule:nonzero;stroke:none"
         id="path620"
         inkscape:connector-curvature="0" /></g><g
       id="g622"
       transform="matrix(1.2937065,0,0,1.2937065,360.70847,521.9969)"><path
         d="m 0,0 0,10.695 c 0,0 28.915,4.236 45.406,4.236 16.49,0 40.643,-5.595 40.643,-5.595 l 1.165,-9.589 C 87.214,-0.253 51,10.729 0,0"
         style="fill:#323232;fill-opacity:1;fill-rule:nonzero;stroke:none"
         id="path624"
         inkscape:connector-curvature="0" /></g><g
       id="g626"
       transform="matrix(1.2937065,0,0,1.2937065,398.04471,448.93405)"><path
         d="m 0,0 c 0,-1.832 -1.486,-3.318 -3.318,-3.318 -1.834,0 -3.32,1.486 -3.32,3.318 0,1.832 1.486,3.318 3.32,3.318 C -1.486,3.318 0,1.832 0,0"
         style="fill:#3c3c3b;fill-opacity:1;fill-rule:nonzero;stroke:none"
         id="path628"
         inkscape:connector-curvature="0" /></g><g
       id="g630"
       transform="matrix(1.2937065,0,0,1.2937065,445.8733,448.93405)"><path
         d="m 0,0 c 0,-1.832 -1.486,-3.318 -3.32,-3.318 -1.831,0 -3.32,1.486 -3.32,3.318 0,1.832 1.489,3.318 3.32,3.318 C -1.486,3.318 0,1.832 0,0"
         style="fill:#3c3c3b;fill-opacity:1;fill-rule:nonzero;stroke:none"
         id="path632"
         inkscape:connector-curvature="0" /></g><g
       id="g634"
       transform="matrix(1.2937065,0,0,1.2937065,406.91993,409.62503)"><path
         d="m 0,0 18.485,0 c 0,0 0,-7.697 -9.243,-7.697 C 1.138,-7.697 0.282,-2 0,0"
         style="fill:#ffffff;fill-opacity:1;fill-rule:nonzero;stroke:none"
         id="path636"
         inkscape:connector-curvature="0" /></g><g
       id="g638"
       transform="matrix(1.2937065,0,0,1.2937065,418.96446,453.22695)"><path
         d="m 0,0 3.224,-10.852 3.223,-10.851 -6.447,0 -6.449,0 3.224,10.851 L 0,0 Z"
         style="fill:#fba685;fill-opacity:1;fill-rule:nonzero;stroke:none"
         id="path640"
         inkscape:connector-curvature="0" /></g><g
       id="g642"
       transform="matrix(1.2937065,0,0,1.2937065,-97.263637,83.610989)"><g
         id="g644" /><g
         id="g650"><g
           clip-path="url(#clipPath646)"
           id="g652"
           style="opacity:0.10000598"><g
             transform="translate(398.8315,87.2168)"
             id="g654"><path
               d="m 0,0 0,298.459 -1.329,0.577 -71.452,-24.173 4.931,-2.236 -0.129,-21.905 c -3.992,-3.143 -3.57,-18.574 -3.57,-18.574 l 5.099,-0.168 5.101,0.168 c 0,0 0.391,14.355 -3.162,18.195 l 0,20.77 18.239,-8.269 0,-11.059 c -19.672,-8.616 4.385,-39.566 4.385,-39.566 l 0,0 c -1.131,-31.452 -5.493,-60.202 26.013,-65.814 l 0,-11.099 c -0.11,0.028 -1.171,0.287 -2.85,0.495 l -0.002,0.003 c 0,0 -0.13,0.015 -0.33,0.038 -0.056,0.006 -0.113,-0.082 -0.171,-0.076 -0.226,0.024 -0.513,-0.015 -0.827,-0.015 l -0.001,0 c -0.413,0 -0.869,0.163 -1.292,0.177 l 0.003,0.044 c -8.006,0.355 -22.268,-1.865 -25.409,-21.6 -4.422,-27.785 -12.579,-59.599 -12.579,-59.599 l 3.403,-0.268 c -0.848,-3.545 -1.287,-6.61 -1.404,-9.254 l -10.218,0 0,-44.198 29.385,0 0,44.198 -6.304,0 c -0.006,0.478 -0.014,0.94 -0.024,1.364 0.032,-0.487 0.073,-0.935 0.122,-1.351 l 5.098,-0.013 c 0.256,1.688 0.283,3.783 -0.797,5.083 -0.822,0.987 -1.605,2.102 -2.249,3.077 l 2.902,-0.234 5.754,25.093 -3.863,-78.27 11.521,0 0,-12.628 1.252,0 c -1.517,-1.528 -6.011,-0.566 -11.32,-8.015 -6.216,-8.717 29.386,-5.77 31.215,-5.02 1.995,0.82 1.253,14.088 1.253,14.088 l -0.109,0 L -3.715,0 0,0 Z"
               style="fill:#ffffff;fill-opacity:1;fill-rule:nonzero;stroke:none"
               id="path656"
               inkscape:connector-curvature="0" /></g></g></g></g><g
       id="g658"
       transform="matrix(1.2937065,0,0,1.2937065,-97.263637,83.610989)"><g
         id="g660" /><g
         id="g666"><g
           clip-path="url(#clipPath662)"
           id="g668"
           style="opacity:0.10000598"><g
             transform="translate(485.1816,63.7119)"
             id="g670"><path
               d="m 0,0 c 0,-5.358 -39.93,-9.701 -89.181,-9.701 -49.255,0 -89.181,4.343 -89.181,9.701 0,5.357 39.926,9.701 89.181,9.701 C -39.93,9.701 0,5.357 0,0"
               style="fill:#3c3c3b;fill-opacity:1;fill-rule:nonzero;stroke:none"
               id="path672"
               inkscape:connector-curvature="0" /></g></g></g></g><path
       d="m 225.79199,378.76431 -117.72729,0 0,152.65737 117.72729,0 0,-152.65737 z"
       style="fill:#f9b233;fill-opacity:1;fill-rule:nonzero;stroke:none"
       id="path788"
       inkscape:connector-curvature="0" /><g
       id="g790"
       transform="matrix(1.2937065,0,0,1.2937065,82.884128,577.42912)"><path
         d="m 0,0 c -5.841,0 -5.297,-19.135 -5.297,-19.135 l 5.297,-0.17 5.299,0.17 C 5.299,-19.135 5.844,0 0,0"
         style="fill:#f9c81e;fill-opacity:1;fill-rule:nonzero;stroke:none"
         id="path792"
         inkscape:connector-curvature="0" /></g><g
       id="g794"
       transform="matrix(1.2937065,0,0,1.2937065,80.651708,605.45611)"><path
         d="m 0,0 3.189,-1.549 0,-26.678 -3.085,0 L 0,0 Z"
         style="fill:#f9c81e;fill-opacity:1;fill-rule:nonzero;stroke:none"
         id="path796"
         inkscape:connector-curvature="0" /></g><g
       id="g798"
       transform="matrix(1.2937065,0,0,1.2937065,113.19153,324.73563)"><path
         d="m 0,0 c 0,0 1.875,-3.2 3.969,-5.625 2.096,-2.426 0.442,-6.946 0,-8.271 -0.44,-1.323 -4.189,-4.189 -4.631,5.183 C -1.104,0.661 0.381,-20.817 -1.874,-23.048 -6.458,-27.584 -18.636,-23.929 -12.131,0 -5.623,23.929 -1.734,2.694 0,0"
         style="fill:#ffc99c;fill-opacity:1;fill-rule:nonzero;stroke:none"
         id="path800"
         inkscape:connector-curvature="0" /></g><g
       id="g802"
       transform="matrix(1.2937065,0,0,1.2937065,226.22034,324.73563)"><path
         d="m 0,0 c 0,0 -1.874,-3.2 -3.971,-5.625 -2.094,-2.426 -0.441,-6.946 0,-8.271 0.443,-1.323 4.192,-4.189 4.633,5.183 C 1.103,0.661 -0.38,-20.817 1.875,-23.048 6.458,-27.584 18.636,-23.929 12.129,0 5.624,23.929 1.733,2.694 0,0"
         style="fill:#ffc99c;fill-opacity:1;fill-rule:nonzero;stroke:none"
         id="path804"
         inkscape:connector-curvature="0" /></g><g
       id="g806"
       transform="matrix(1.2937065,0,0,1.2937065,167.32125,236.45659)"><path
         d="m 0,0 c 0,0 0.771,-12.916 -1.301,-13.736 -1.901,-0.75 -38.875,-3.873 -32.419,4.844 6.453,8.72 11.752,5.892 12.283,8.892 L 0,0 Z"
         style="fill:#620300;fill-opacity:1;fill-rule:nonzero;stroke:none"
         id="path808"
         inkscape:connector-curvature="0" /></g><path
       d="m 137.81995,235.16289 29.75525,0 0,20.6993 -29.75525,0 0,-20.6993 z"
       style="fill:#81bbb2;fill-opacity:1;fill-rule:nonzero;stroke:none"
       id="path810"
       inkscape:connector-curvature="0" /><g
       id="g812"
       transform="matrix(1.2937065,0,0,1.2937065,179.07069,236.45659)"><path
         d="m 0,0 c 0,0 -0.771,-12.916 1.3,-13.736 1.9,-0.75 38.874,-3.873 32.421,4.844 C 27.265,-0.172 21.966,-3 21.436,0 L 0,0 Z"
         style="fill:#620300;fill-opacity:1;fill-rule:nonzero;stroke:none"
         id="path814"
         inkscape:connector-curvature="0" /></g><path
       d="m 207.6801,235.16289 -29.75524,0 0,20.6993 29.75524,0 0,-20.6993 z"
       style="fill:#81bbb2;fill-opacity:1;fill-rule:nonzero;stroke:none"
       id="path816"
       inkscape:connector-curvature="0" /><path
       d="m 184.39339,396.8762 -34.93008,0 0,51.74826 34.93008,0 0,-51.74826 z"
       style="fill:#ffc99c;fill-opacity:1;fill-rule:nonzero;stroke:none"
       id="path818"
       inkscape:connector-curvature="0" /><g
       id="g820"
       transform="matrix(1.2937065,0,0,1.2937065,244.68218,323.21708)"><path
         d="m 0,0 c 0,0 -8.472,31.824 -13.063,59.61 -4.594,27.787 -32.099,20.905 -32.099,20.905 L -58.468,61.186 -72.51,80.515 c 0,0 -27.505,6.882 -32.098,-20.905 C -109.2,31.824 -117.672,0 -117.672,0 l 20.681,-1.608 5.976,24.953 -4.011,-78.408 36.19,0 36.19,0 -4.011,78.408 L -20.681,-1.67 0,0 Z"
         style="fill:#3c3c3b;fill-opacity:1;fill-rule:nonzero;stroke:none"
         id="path822"
         inkscape:connector-curvature="0" /></g><g
       id="g824"
       transform="matrix(1.2937065,0,0,1.2937065,218.8206,539.97101)"><path
         d="m 0,0 c 0,38.852 -24.82,44.243 -39.676,44.243 -14.856,0 -39.675,-5.391 -39.675,-44.243 0,-38.85 -11.466,-76.912 39.675,-76.912 C 11.467,-76.912 0,-38.85 0,0"
         style="fill:#ffc99c;fill-opacity:1;fill-rule:nonzero;stroke:none"
         id="path826"
         inkscape:connector-curvature="0" /></g><g
       id="g828"
       transform="matrix(1.2937065,0,0,1.2937065,190.41973,428.0641)"><path
         d="m 0,0 -16.603,-23.737 -16.955,23.712 c 0,0 -1.504,0.18 -2.72,0.218 L -16.545,-29.274 2.627,0.193 C 1.408,0.155 0,0 0,0"
         style="fill:#f9c81e;fill-opacity:1;fill-rule:nonzero;stroke:none"
         id="path830"
         inkscape:connector-curvature="0" /></g><g
       id="g832"
       transform="matrix(1.2937065,0,0,1.2937065,147.8727,504.83123)"><path
         d="m 0,0 c 0,-1.832 -1.485,-3.318 -3.319,-3.318 -1.831,0 -3.32,1.486 -3.32,3.318 0,1.833 1.489,3.318 3.32,3.318 C -1.485,3.318 0,1.833 0,0"
         style="fill:#3c3c3b;fill-opacity:1;fill-rule:nonzero;stroke:none"
         id="path834"
         inkscape:connector-curvature="0" /></g><g
       id="g836"
       transform="matrix(1.2937065,0,0,1.2937065,195.70064,504.83123)"><path
         d="m 0,0 c 0,-1.832 -1.486,-3.318 -3.319,-3.318 -1.831,0 -3.32,1.486 -3.32,3.318 0,1.833 1.489,3.318 3.32,3.318 C -1.486,3.318 0,1.833 0,0"
         style="fill:#3c3c3b;fill-opacity:1;fill-rule:nonzero;stroke:none"
         id="path838"
         inkscape:connector-curvature="0" /></g><g
       id="g840"
       transform="matrix(1.2937065,0,0,1.2937065,156.74921,466.73635)"><path
         d="m 0,0 18.483,0 c 0,0 0,-7.696 -9.243,-7.696 C 1.137,-7.696 0.281,-3 0,0"
         style="fill:#ffffff;fill-opacity:1;fill-rule:nonzero;stroke:none"
         id="path842"
         inkscape:connector-curvature="0" /></g><g
       id="g844"
       transform="matrix(1.2937065,0,0,1.2937065,168.7918,509.12413)"><path
         d="m 0,0 3.225,-10.382 3.222,-10.383 -6.447,0 -6.448,0 3.222,10.383 L 0,0 Z"
         style="fill:#fba685;fill-opacity:1;fill-rule:nonzero;stroke:none"
         id="path846"
         inkscape:connector-curvature="0" /></g><path
       d="m 115.82694,236.45659 -21.993009,0 0,50.45456 21.993009,0 0,-50.45456 z"
       style="fill:#d66d31;fill-opacity:1;fill-rule:nonzero;stroke:none"
       id="path848"
       inkscape:connector-curvature="0" /><path
       d="m 108.0647,280.44261 -6.46853,0 0,25.87413 6.46853,0 0,-25.87413 z"
       style="fill:#d66d31;fill-opacity:1;fill-rule:nonzero;stroke:none"
       id="path850"
       inkscape:connector-curvature="0" /><g
       id="g852"
       transform="matrix(1.2937065,0,0,1.2937065,171.20871,560.6033)"><path
         d="m 0,0 -50.967,-35.519 c 0,0 -12.146,63.178 47.224,65.975 59.371,2.795 50.514,-65.975 50.514,-65.975 L 0,0 Z"
         style="fill:#f9b233;fill-opacity:1;fill-rule:nonzero;stroke:none"
         id="path854"
         inkscape:connector-curvature="0" /></g><g
       id="g856"
       transform="matrix(1.2937065,0,0,1.2937065,110.65212,577.89408)"><path
         d="M 0,0 0,11.2 -27.784,23.219 46.295,47.394 110.657,20.48 85.936,9.336 87.154,0 C 87.154,0 50,10.729 0,0"
         style="fill:#3c3c3b;fill-opacity:1;fill-rule:nonzero;stroke:none"
         id="path858"
         inkscape:connector-curvature="0" /></g><g
       id="g860"
       transform="matrix(1.2937065,0,0,1.2937065,110.65212,577.89408)"><path
         d="m 0,0 0,10.695 c 0,0 28.869,4.235 45.361,4.235 16.491,0 40.621,-5.594 40.621,-5.594 l 1.197,-9.588 C 87.179,-0.252 50,10.729 0,0"
         style="fill:#323232;fill-opacity:1;fill-rule:nonzero;stroke:none"
         id="path862"
         inkscape:connector-curvature="0" /></g><g
       id="g864"
       transform="matrix(1.2937065,0,0,1.2937065,-622.87949,139.4286)"><g
         id="g866" /><g
         id="g872"><g
           clip-path="url(#clipPath868)"
           id="g874"
           style="opacity:0.10000598"><g
             transform="translate(613.3066,386.3115)"
             id="g876"><path
               d="m 0,0 -0.01,0.004 -74.079,-24.175 4.601,-1.99 0.078,-22.194 c -4.088,-3.233 -3.657,-18.529 -3.657,-18.529 l 5.296,-0.17 5.299,0.17 c 0,0 0.449,15.732 -3.825,18.666 l 0,20.584 -0.976,0.515 20.97,-9.07 0,-11.201 c 2.158,0.459 4.28,0.864 6.385,1.245 -16.416,-19.551 -10.547,-50.128 -10.547,-50.128 l 3.111,2.167 0,-90.776 c -4.603,-27.728 -13.023,-59.366 -13.023,-59.366 l 3.535,-0.274 c -3.638,-14.624 -0.012,-21.23 4.226,-22.863 l 0,-4.493 -6.315,0 0,-38.936 16.838,0 0,38.936 -5.261,0 0,4.895 c 0.413,0.241 0.796,0.525 1.136,0.861 1.325,1.31 1.359,9.263 1.251,13.7 0.58,-8.597 4.162,-5.84 4.592,-4.548 0.442,1.324 2.097,5.845 0,8.271 -0.853,0.987 -1.667,2.101 -2.335,3.077 l 3.014,-0.234 5.976,24.99 -4.011,-78.372 12.475,0 0,-12.628 0.785,0 c -1.578,-1.513 -6.242,-0.521 -11.752,-7.964 -6.456,-8.718 30.518,-5.719 32.419,-4.969 1.714,0.679 1.482,9.801 1.35,12.933 l 0.35,0 0,12.628 2.104,0 L 0,0 Z"
               style="fill:#ffffff;fill-opacity:1;fill-rule:nonzero;stroke:none"
               id="path878"
               inkscape:connector-curvature="0" /></g></g></g></g><g
       id="g880"
       transform="matrix(1.2937065,0,0,1.2937065,-622.87949,139.4286)"><g
         id="g882" /><g
         id="g888"><g
           clip-path="url(#clipPath884)"
           id="g890"
           style="opacity:0.10000598"><g
             transform="translate(703.6191,63.7119)"
             id="g892"><path
               d="m 0,0 c 0,-5.358 -39.929,-9.701 -89.182,-9.701 -49.254,0 -89.18,4.343 -89.18,9.701 0,5.357 39.926,9.701 89.18,9.701 C -39.929,9.701 0,5.357 0,0"
               style="fill:#3c3c3b;fill-opacity:1;fill-rule:nonzero;stroke:none"
               id="path894"
               inkscape:connector-curvature="0" /></g></g></g></g></g></svg>